<svg version="1.0" xmlns="http://www.w3.org/2000/svg" width="682.667" height="682.667" viewBox="0 0 512 512"><path d="M36.7 44.1c-11.4 1.8-24.1 10.5-30 20.7C-.4 77 0 66.8.1 222.9c0 86.8.4 142.5 1 145.6 3.5 18.1 18.4 32.3 36.9 35.1 4.5.8 342.2 1.2 341.5.5-.2-.2-3.6-1.4-7.5-2.7-13.8-4.7-27.3-12.7-37.4-22.1l-5.4-5.1-144 .1c-139.8 0-144.1 0-147.2-1.9-1.8-1-4.2-3.2-5.4-4.7l-2.1-2.8-.3-140c-.2-139.6-.2-140 1.9-144 1.4-2.8 3.2-4.6 5.9-5.8 3.6-1.6 16.4-1.7 203.8-1.7l200.1.1 2.8 2.1c1.5 1.2 3.7 3.6 4.7 5.4 1.8 3.1 1.9 6.1 1.9 63.1v60l5.6 3c5.1 2.7 13.7 8.8 21.6 15.3l3 2.5-.1-71.7c-.1-39.4-.4-72.4-.7-73.2-.2-.8-.7-2.9-1.2-4.5-1.5-5.8-6.4-14.1-10.9-18.7-5.9-6-12.3-9.5-21.1-11.8-6.6-1.7-17.3-1.8-206.5-1.7-109.7 0-201.7.4-204.3.8z"/><path d="M308.5 152c-5.5.9-9.8 3.3-13.4 7.7-10.5 12.7-2 32.3 14.5 33.7 11.7.9 21.7-7.6 22.8-19.4.4-4.3-2.5-12.4-5.6-15.7-4.4-4.7-11.8-7.3-18.3-6.3zM175.9 170.2c-7.1 12.3-11.6 20.1-13.6 23.8-1.5 2.6-55.6 97.1-58 101.3-.2.4 43.6.6 97.4.5l97.8-.3.3-5c1-17.4 6.4-32.7 17.8-50.3 3-4.5 5.4-8.5 5.4-8.8 0-.3-7.3-9.5-16.2-20.6l-16.2-20-3.3 3.8c-1.8 2.2-14.2 17.3-27.5 33.6-13.4 16.3-24.5 29.7-24.8 29.7-.4.1-9.5-15.6-24.9-43.3-1.9-3.4-9-15.9-15.8-28-6.7-12-12.3-22.3-12.3-22.7 0-2.6-2.4-.1-6.1 6.3zM393.8 209.1c-9.6 1.3-17.9 3.9-27.3 8.4-31.8 15.2-51.7 46.1-51.9 80.5-.1 13.6.7 19.6 4 29.9 15.6 47.5 67.1 74 114.4 58.9 18-5.7 34.3-17.1 45.3-31.6 6.9-9.1 13.7-22.6 15.2-30.2.2-.8.8-3.5 1.5-6 1.7-6.4 2.1-26.3.6-34-2-10.4-4.5-18-8.3-25.5-17.6-34.9-55.7-55.5-93.5-50.4zm27.7 16.4c24.2 5.8 42.3 20 53.3 42 5.2 10.5 7.5 20.6 7.5 33 0 13.6-1.9 21.8-8.1 34.5-3.8 7.8-6.1 10.9-13.1 18-23.4 23.5-54.9 30.1-84.8 17.7-20-8.2-37.6-28.5-43.8-50.4-5.1-18.2-2.5-39.8 6.7-56.3 10.4-18.6 29.4-32.9 50.4-37.9 8-1.8 25.3-2.2 31.9-.6zM467.5 378.1c-3.8 2.2-7.7 4.4-8.5 4.9-4.5 2.8-17.3 10-17.8 10-.4.1-1.7.9-3 2l-2.3 1.9 2.4 4.3c1.4 2.4 6.3 10.8 10.9 18.8 4.7 8 9.6 16.6 11 19.1 3.9 6.9 5.2 8.9 6 8.9.4 0 7.6-4 16-8.9s16.8-9.7 18.7-10.8c1.8-1 3.3-2.2 3.3-2.6 0-.7-29.2-51.7-29.6-51.7 0 0-3.2 1.9-7.1 4.1zM503.5 437.4c-2.2 1.3-10.1 5.8-17.5 10-17.6 10.1-17.3 9.7-13 14.1 8.3 8.5 21.9 9.4 31.7 1.9 4.3-3.3 6.4-7.8 6.8-14.7.4-5.7-1.3-12.8-3.1-13.3-.5-.2-2.7.7-4.9 2z"/></svg>